<?xml version="1.0" encoding="UTF-8" standalone="no"?><svg xmlns="http://www.w3.org/2000/svg" xmlns:xlink="http://www.w3.org/1999/xlink"><symbol id="active" width="16" height="16" viewBox="0 0 16 16" xmlns="http://www.w3.org/2000/svg"><path d="M11.7803 6.28033C12.0732 5.98744 12.0732 5.51256 11.7803 5.21967C11.4874 4.92678 11.0126 4.92678 10.7197 5.21967L6.75 9.18934L5.28033 7.71967C4.98744 7.42678 4.51256 7.42678 4.21967 7.71967C3.92678 8.01256 3.92678 8.48744 4.21967 8.78033L6.21967 10.7803C6.51256 11.0732 6.98744 11.0732 7.28033 10.7803L11.7803 6.28033Z"></path><path fill-rule="evenodd" clip-rule="evenodd" d="M0 8C0 3.58172 3.58172 0 8 0C12.4183 0 16 3.58172 16 8C16 12.4183 12.4183 16 8 16C3.58172 16 0 12.4183 0 8ZM1.5 8C1.5 4.41015 4.41015 1.5 8 1.5C11.5899 1.5 14.5 4.41015 14.5 8C14.5 11.5899 11.5899 14.5 8 14.5C4.41015 14.5 1.5 11.5899 1.5 8Z"></path></symbol><symbol id="arrow" width="11" height="10" viewBox="0 0 11 10" xmlns="http://www.w3.org/2000/svg"><rect x="1.08984" y="3.96912" width="9.90993" height="2.00978" rx="1"></rect><rect width="6.98576" height="2.19015" rx="1" transform="matrix(0.702166 0.712013 -0.702166 0.712013 1.58545 3.46661)"></rect><rect width="6.98576" height="2.19015" rx="1" transform="matrix(0.702166 -0.712013 0.702166 0.712013 0 4.974)"></rect></symbol><symbol id="basket" width="12" height="14" viewBox="0 0 12 14" xmlns="http://www.w3.org/2000/svg"><path d="M11.5938 2.53901H10.7476L10.7476 12.2698C10.7476 12.4461 10.7145 12.6113 10.6484 12.7656C10.5823 12.9198 10.492 13.0542 10.3774 13.1688C10.2628 13.2834 10.1284 13.3737 9.97416 13.4399C9.81991 13.506 9.65465 13.539 9.47837 13.539L2.70913 13.539C2.53285 13.539 2.36759 13.506 2.21334 13.4399C2.05909 13.3737 1.92468 13.2834 1.8101 13.1688C1.69551 13.0542 1.60517 12.9198 1.53906 12.7656C1.47296 12.6113 1.4399 12.4461 1.4399 12.2698L1.4399 2.53901H0.59375L0.59375 1.69286L3.97837 1.69286V0.846705C3.97837 0.727714 4.0004 0.617538 4.04447 0.516176C4.08854 0.414814 4.14804 0.326673 4.22296 0.251753C4.29788 0.176833 4.38822 0.115134 4.49399 0.0666566C4.59976 0.0181791 4.70994 -0.00385617 4.82452 0.000550881L7.36298 0.000550881C7.48197 0.000550881 7.59215 0.0225861 7.69351 0.0666566C7.79487 0.110727 7.88301 0.170222 7.95793 0.245142C8.03285 0.320062 8.09455 0.410407 8.14303 0.516176C8.19151 0.621945 8.21354 0.732121 8.20913 0.846705V1.69286L11.5938 1.69286V2.53901ZM4.82452 1.69286L7.36298 1.69286V0.846705L4.82452 0.846705V1.69286ZM9.90144 2.53901L2.28606 2.53901L2.28606 12.2698C2.28606 12.3844 2.32792 12.4835 2.41166 12.5673C2.49539 12.651 2.59455 12.6929 2.70913 12.6929L9.47837 12.6929C9.59295 12.6929 9.69211 12.651 9.77584 12.5673C9.85958 12.4835 9.90144 12.3844 9.90144 12.2698L9.90144 2.53901ZM4.82452 11.0006H3.97837L3.97837 4.23132L4.82452 4.23132L4.82452 11.0006ZM6.51683 11.0006H5.67067L5.67067 4.23132H6.51683L6.51683 11.0006ZM8.20913 11.0006L7.36298 11.0006L7.36298 4.23132H8.20913L8.20913 11.0006Z"></path></symbol><symbol id="close" width="16" height="16" viewBox="0 0 16 16" xmlns="http://www.w3.org/2000/svg"><rect x="3.46436" y="2.0498" width="14.9984" height="1.99979" rx="0.999893" transform="rotate(45 3.46436 2.0498)"></rect><rect width="14.9984" height="1.99979" rx="0.999893" transform="matrix(0.707182 -0.707031 0.707182 0.707031 2.05029 12.5327)"></rect></symbol><symbol id="check" width="14" height="10" viewBox="0 0 14 10" xmlns="http://www.w3.org/2000/svg"><path fill-rule="evenodd" clip-rule="evenodd" d="M5.22228 9.44464L0.777832 5.0002L2.02228 3.75575L5.22228 6.95575L11.9778 0.200195L13.2223 1.44464L5.22228 9.44464V9.44464Z"></path></symbol><symbol id="comparison" width="17" height="10" viewBox="0 0 17 10" xmlns="http://www.w3.org/2000/svg"><rect x="9.09375" width="7" height="1.5" rx="0.75"></rect><rect x="9.09375" y="4" width="7" height="1.5" rx="0.75"></rect><rect x="9.09375" y="8.02832" width="7" height="1.5" rx="0.75"></rect><path fill-rule="evenodd" clip-rule="evenodd" d="M2.34375 6.75C2.34375 7.16421 2.67954 7.5 3.09375 7.5C3.50796 7.5 3.84375 7.16421 3.84375 6.75V5.25H5.34375C5.75796 5.25 6.09375 4.91421 6.09375 4.5C6.09375 4.08579 5.75796 3.75 5.34375 3.75H3.84375L3.84375 2.25C3.84375 1.83579 3.50796 1.5 3.09375 1.5C2.67954 1.5 2.34375 1.83579 2.34375 2.25L2.34375 3.75L0.84375 3.75C0.429536 3.75 0.09375 4.08579 0.09375 4.5C0.09375 4.91421 0.429536 5.25 0.84375 5.25H2.34375V6.75Z"></path></symbol><symbol id="copy-link" width="17" height="10" viewBox="0 0 17 10" xmlns="http://www.w3.org/2000/svg"><path d="M12.0938 3V4C12.4896 4 12.8672 4.04427 13.2266 4.13281C13.5859 4.22135 13.9062 4.36719 14.1875 4.57031C14.4688 4.77344 14.6875 5.03125 14.8438 5.34375C15 5.65625 15.0833 6.04167 15.0938 6.5C15.0938 6.84375 15.0286 7.16667 14.8984 7.46875C14.7682 7.77083 14.5885 8.03385 14.3594 8.25781C14.1302 8.48177 13.8646 8.66146 13.5625 8.79688C13.2604 8.93229 12.9375 9 12.5937 9H8.59375C8.25 9 7.92708 8.9349 7.625 8.80469C7.32292 8.67448 7.0599 8.49479 6.83594 8.26562C6.61198 8.03646 6.43229 7.77083 6.29687 7.46875C6.16146 7.16667 6.09375 6.84375 6.09375 6.5C6.09375 6.04688 6.17448 5.66406 6.33594 5.35156C6.4974 5.03906 6.71875 4.78125 7 4.57813C7.28125 4.375 7.59896 4.22917 7.95312 4.14063C8.30729 4.05208 8.6875 4.00521 9.09375 4V3H8.59375C8.10938 3 7.65625 3.09115 7.23438 3.27344C6.8125 3.45573 6.44271 3.70573 6.125 4.02344C5.80729 4.34115 5.55729 4.71094 5.375 5.13281C5.19271 5.55469 5.09896 6.01042 5.09375 6.5C5.09375 6.98438 5.1849 7.4375 5.36719 7.85938C5.54948 8.28125 5.79948 8.65104 6.11719 8.96875C6.4349 9.28646 6.80469 9.53646 7.22656 9.71875C7.64844 9.90104 8.10417 9.99479 8.59375 10H12.5937C13.0781 10 13.5312 9.90885 13.9531 9.72656C14.375 9.54427 14.7448 9.29427 15.0625 8.97656C15.3802 8.65885 15.6302 8.28906 15.8125 7.86719C15.9948 7.44531 16.0885 6.98958 16.0938 6.5C16.0938 6.01563 16.0026 5.5625 15.8203 5.14063C15.638 4.71875 15.388 4.34896 15.0703 4.03125C14.7526 3.71354 14.3828 3.46354 13.9609 3.28125C13.5391 3.09896 13.0833 3.00521 12.5938 3H12.0938ZM7.09375 7V6C7.48958 6 7.86719 5.95573 8.22656 5.86719C8.58594 5.77865 8.90625 5.63281 9.1875 5.42969C9.46875 5.22656 9.6875 4.96875 9.84375 4.65625C10 4.34375 10.0833 3.95833 10.0938 3.5C10.0938 3.15625 10.0286 2.83333 9.89844 2.53125C9.76823 2.22917 9.58854 1.96615 9.35938 1.74219C9.13021 1.51823 8.86458 1.33854 8.5625 1.20313C8.26042 1.06771 7.9375 1 7.59375 1L3.59375 1C3.25 1 2.92708 1.0651 2.625 1.19531C2.32292 1.32552 2.0599 1.50521 1.83594 1.73438C1.61198 1.96354 1.43229 2.22917 1.29687 2.53125C1.16146 2.83333 1.09375 3.15625 1.09375 3.5C1.09375 3.95312 1.17448 4.33594 1.33594 4.64844C1.4974 4.96094 1.71875 5.21875 2 5.42188C2.28125 5.625 2.59896 5.77083 2.95312 5.85938C3.30729 5.94792 3.6875 5.99479 4.09375 6V7L3.59375 7C3.10937 7 2.65625 6.90885 2.23437 6.72656C1.8125 6.54427 1.44271 6.29427 1.125 5.97656C0.807292 5.65885 0.557292 5.28906 0.375 4.86719C0.192708 4.44531 0.0989583 3.98958 0.09375 3.5C0.09375 3.01562 0.184896 2.5625 0.367187 2.14062C0.549479 1.71875 0.799479 1.34896 1.11719 1.03125C1.4349 0.713542 1.80469 0.463542 2.22656 0.28125C2.64844 0.0989583 3.10417 0.00520833 3.59375 0L7.59375 0C8.07812 0 8.53125 0.0911458 8.95312 0.273438C9.375 0.455729 9.74479 0.705729 10.0625 1.02344C10.3802 1.34115 10.6302 1.71094 10.8125 2.13281C10.9948 2.55469 11.0885 3.01042 11.0938 3.5C11.0938 3.98438 11.0026 4.4375 10.8203 4.85938C10.638 5.28125 10.388 5.65104 10.0703 5.96875C9.7526 6.28646 9.38281 6.53646 8.96094 6.71875C8.53906 6.90104 8.08333 6.99479 7.59375 7H7.09375Z"></path></symbol><symbol id="logo" width="19" height="18" viewBox="0 0 19 18" xmlns="http://www.w3.org/2000/svg"><path d="M0.99707 9H4.59328V14.4H15.3819V3.6H0.99707V0.000229975H16.8152C17.1077 -0.00458693 17.3976 0.0663159 17.6655 0.208154C17.9198 0.338533 18.1512 0.526178 18.3472 0.761045C18.5381 0.990604 18.6933 1.25947 18.8057 1.55494C18.9204 1.85907 18.9792 2.18955 18.9781 2.52368V15.4717C18.9797 15.8167 18.9252 16.1587 18.8174 16.4783C18.7113 16.7754 18.5567 17.0437 18.3629 17.2674C18.1733 17.4962 17.9501 17.6805 17.7046 17.8109C17.4502 17.9387 17.177 18.003 16.9014 17.9999H0.99707V9Z"></path></symbol><symbol id="dark" width="12" height="13" viewBox="0 0 12 13" xmlns="http://www.w3.org/2000/svg"><path d="M0.807238 9.60537C1.3943 9.60537 1.96054 9.53042 2.50597 9.38054C3.05139 9.23065 3.55935 9.01414 4.02983 8.73102C4.50031 8.4479 4.93124 8.11481 5.32261 7.73177C5.71399 7.34872 6.04915 6.91779 6.32811 6.43898C6.60707 5.96018 6.82149 5.45014 6.97138 4.90888C7.12127 4.36762 7.1983 3.80137 7.20246 3.21015C7.20246 2.65639 7.13168 2.11305 6.99012 1.58012C6.84856 1.04718 6.64246 0.541309 6.37183 0.0625C6.90476 0.129117 7.4148 0.256105 7.90194 0.443465C8.38907 0.630825 8.84082 0.87023 9.25717 1.16168C9.67353 1.45313 10.0503 1.78829 10.3876 2.16718C10.7248 2.54606 11.0121 2.96033 11.2494 3.41C11.4868 3.85966 11.672 4.33639 11.8053 4.84018C11.9385 5.34397 12.003 5.8665 11.9989 6.40776C11.9989 6.99482 11.9239 7.56106 11.774 8.10649C11.6242 8.65191 11.4076 9.15987 11.1245 9.63035C10.8414 10.1008 10.5083 10.5318 10.1253 10.9231C9.74223 11.3145 9.3113 11.6497 8.83249 11.9286C8.35368 12.2076 7.84365 12.422 7.30238 12.5719C6.76112 12.7218 6.19488 12.7988 5.60365 12.803C5.02908 12.803 4.46908 12.728 3.92366 12.5781C3.37823 12.4283 2.86612 12.2138 2.38731 11.9349C1.9085 11.6559 1.46716 11.3145 1.0633 10.9106C0.659432 10.5068 0.318021 10.055 0.0390625 9.5554C0.168133 9.57206 0.295121 9.58455 0.420028 9.59288C0.544934 9.6012 0.674005 9.60537 0.807238 9.60537ZM5.60365 12.0036C6.11993 12.0036 6.6154 11.937 7.09004 11.8037C7.56469 11.6705 8.01019 11.4831 8.42654 11.2416C8.8429 11.0002 9.2197 10.7087 9.55695 10.3673C9.8942 10.0259 10.1856 9.64909 10.4313 9.23689C10.6769 8.8247 10.8664 8.3792 10.9996 7.90039C11.1329 7.42158 11.1995 6.92404 11.1995 6.40776C11.1995 5.84151 11.1162 5.29401 10.9497 4.76524C10.7831 4.23646 10.55 3.74516 10.2502 3.29134C9.95041 2.83751 9.58401 2.43364 9.151 2.07974C8.71799 1.72584 8.24127 1.44272 7.72082 1.23038C7.90818 1.87573 8.00186 2.53565 8.00186 3.21015C8.00186 3.81803 7.929 4.40509 7.78327 4.97133C7.63755 5.53757 7.42937 6.07467 7.15874 6.58263C6.88811 7.09058 6.56127 7.55898 6.17822 7.98783C5.79518 8.41667 5.36841 8.79556 4.89793 9.12448C4.42745 9.4534 3.9195 9.72195 3.37407 9.93013C2.82864 10.1383 2.25199 10.2799 1.64411 10.3548C2.17705 10.8877 2.78076 11.2958 3.45526 11.5789C4.12976 11.862 4.84589 12.0036 5.60365 12.0036Z"></path></symbol><symbol id="triangle" width="8" height="4" viewBox="0 0 8 4" xmlns="http://www.w3.org/2000/svg"><path d="M0.426782 0.42678L3.82326 3.82322C3.92089 3.92085 4.07918 3.92085 4.17681 3.82322L7.5732 0.42678C7.7307 0.26928 7.6192 0 7.3964 0H0.603562C0.380832 0 0.269292 0.26929 0.426782 0.42678Z"></path></symbol><symbol id="man" width="10" height="11" viewBox="0 0 10 11" xmlns="http://www.w3.org/2000/svg"><rect x="7" y="0.102539" width="4" height="4" rx="2" transform="rotate(90 7 0.102539)"></rect><path d="M0 9.38825C0 7.02132 1.91878 5.10254 4.28571 5.10254H5.71429C8.08122 5.10254 10 7.02132 10 9.38825V9.38825C10 9.78274 9.6802 10.1025 9.28571 10.1025H0.714286C0.319797 10.1025 0 9.78274 0 9.38825V9.38825Z"></path></symbol><symbol id="search" width="16" height="17" viewBox="0 0 16 17" xmlns="http://www.w3.org/2000/svg"><path fill-rule="evenodd" clip-rule="evenodd" d="M5.97343 12.1524C9.27247 12.1524 11.9469 9.47803 11.9469 6.179C11.9469 2.87996 9.27247 0.205566 5.97343 0.205566C2.6744 0.205566 0 2.87996 0 6.179C0 9.47803 2.6744 12.1524 5.97343 12.1524ZM5.97343 10.1613C8.17279 10.1613 9.95572 8.37836 9.95572 6.179C9.95572 3.97964 8.17279 2.19671 5.97343 2.19671C3.77408 2.19671 1.99114 3.97964 1.99114 6.179C1.99114 8.37836 3.77408 10.1613 5.97343 10.1613Z"></path><rect x="8.95996" y="10.5737" width="1.99114" height="7.96458" rx="0.995572" transform="rotate(-45 8.95996 10.5737)"></rect></symbol><symbol id="light" width="15" height="15" viewBox="0 0 15 15" xmlns="http://www.w3.org/2000/svg"><path d="M7.5 4C7.98438 4 8.4375 4.09115 8.85938 4.27344C9.28125 4.45573 9.65365 4.70573 9.97656 5.02344C10.2995 5.34115 10.5495 5.71094 10.7266 6.13281C10.9036 6.55469 10.9948 7.01042 11 7.5C11 7.98438 10.9089 8.4375 10.7266 8.85938C10.5443 9.28125 10.2943 9.65365 9.97656 9.97656C9.65885 10.2995 9.28906 10.5495 8.86719 10.7266C8.44531 10.9036 7.98958 10.9948 7.5 11C7.01562 11 6.5625 10.9089 6.14062 10.7266C5.71875 10.5443 5.34635 10.2943 5.02344 9.97656C4.70052 9.65885 4.45052 9.28906 4.27344 8.86719C4.09635 8.44531 4.00521 7.98958 4 7.5C4 7.01562 4.09115 6.5625 4.27344 6.14062C4.45573 5.71875 4.70573 5.34635 5.02344 5.02344C5.34115 4.70052 5.71094 4.45052 6.13281 4.27344C6.55469 4.09635 7.01042 4.00521 7.5 4ZM7.5 10C7.84375 10 8.16667 9.9349 8.46875 9.80469C8.77083 9.67448 9.03385 9.4974 9.25781 9.27344C9.48177 9.04948 9.66146 8.78385 9.79688 8.47656C9.93229 8.16927 10 7.84375 10 7.5C10 7.15625 9.9349 6.83333 9.80469 6.53125C9.67448 6.22917 9.49479 5.96615 9.26562 5.74219C9.03646 5.51823 8.77083 5.33854 8.46875 5.20312C8.16667 5.06771 7.84375 5 7.5 5C7.15625 5 6.83333 5.0651 6.53125 5.19531C6.22917 5.32552 5.96354 5.50521 5.73438 5.73438C5.50521 5.96354 5.32552 6.22917 5.19531 6.53125C5.0651 6.83333 5 7.15625 5 7.5C5 7.84375 5.0651 8.16667 5.19531 8.46875C5.32552 8.77083 5.5026 9.03646 5.72656 9.26562C5.95052 9.49479 6.21615 9.67448 6.52344 9.80469C6.83073 9.9349 7.15625 10 7.5 10ZM8 3H7V0H8V3ZM7 12H8V15H7V12ZM15 7V8H12V7H15ZM3 8H0V7H3V8ZM3.96094 4.67188L1.84375 2.54688L2.54688 1.84375L4.67188 3.96094L3.96094 4.67188ZM11.0391 10.3281L13.1562 12.4531L12.4531 13.1562L10.3281 11.0391L11.0391 10.3281ZM11.0391 4.67188L10.3281 3.96094L12.4531 1.84375L13.1562 2.54688L11.0391 4.67188ZM3.96094 10.3281L4.67188 11.0391L2.54688 13.1562L1.84375 12.4531L3.96094 10.3281Z"></path></symbol></svg>