<?xml version="1.0" encoding="UTF-8" standalone="no"?><svg xmlns="http://www.w3.org/2000/svg" xmlns:xlink="http://www.w3.org/1999/xlink"><symbol id="active" width="16" height="16" viewBox="0 0 16 16" xmlns="http://www.w3.org/2000/svg"><path d="M11.7803 6.28033C12.0732 5.98744 12.0732 5.51256 11.7803 5.21967C11.4874 4.92678 11.0126 4.92678 10.7197 5.21967L6.75 9.18934L5.28033 7.71967C4.98744 7.42678 4.51256 7.42678 4.21967 7.71967C3.92678 8.01256 3.92678 8.48744 4.21967 8.78033L6.21967 10.7803C6.51256 11.0732 6.98744 11.0732 7.28033 10.7803L11.7803 6.28033Z"></path><path fill-rule="evenodd" clip-rule="evenodd" d="M0 8C0 3.58172 3.58172 0 8 0C12.4183 0 16 3.58172 16 8C16 12.4183 12.4183 16 8 16C3.58172 16 0 12.4183 0 8ZM1.5 8C1.5 4.41015 4.41015 1.5 8 1.5C11.5899 1.5 14.5 4.41015 14.5 8C14.5 11.5899 11.5899 14.5 8 14.5C4.41015 14.5 1.5 11.5899 1.5 8Z"></path></symbol><symbol id="arrow" width="11" height="10" viewBox="0 0 11 10" xmlns="http://www.w3.org/2000/svg"><rect x="1.08984" y="3.96912" width="9.90993" height="2.00978" rx="1"></rect><rect width="6.98576" height="2.19015" rx="1" transform="matrix(0.702166 0.712013 -0.702166 0.712013 1.58545 3.46661)"></rect><rect width="6.98576" height="2.19015" rx="1" transform="matrix(0.702166 -0.712013 0.702166 0.712013 0 4.974)"></rect></symbol><symbol id="baseline" width="10" height="16" viewBox="0 0 10 16" xmlns="http://www.w3.org/2000/svg"><path fill-rule="evenodd" clip-rule="evenodd" d="M5 0C2.23879 0 0 2.2384 0 4.99962C0 6.15488 0.391902 7.21863 1.05 8.06521V15V15.8124L1.7387 15.3815L5 13.3408L8.2613 15.3815L8.95 15.8124V15V8.06521C9.6081 7.21863 10 6.15488 10 4.99962C10 2.2384 7.76121 0 5 0ZM1.95 14.1876V8.96156C2.79409 9.61223 3.85188 9.99923 5 9.99923C6.14812 9.99923 7.20591 9.61223 8.05 8.96156V14.1876L5.2387 12.4285L5 12.2791L4.7613 12.4285L1.95 14.1876ZM5 1C2.79103 1 1 2.79072 1 4.99969C1 7.20866 2.79103 8.99939 5 8.99939C7.20897 8.99939 9 7.20866 9 4.99969C9 2.79072 7.20897 1 5 1ZM5.00012 2.62421C3.68855 2.62421 2.62512 3.68745 2.62512 4.99902C2.62512 6.3106 3.68855 7.37384 5.00012 7.37384C6.3117 7.37384 7.37512 6.3106 7.37512 4.99902C7.37512 3.68745 6.3117 2.62421 5.00012 2.62421Z"></path></symbol><symbol id="basket" width="12" height="14" viewBox="0 0 12 14" xmlns="http://www.w3.org/2000/svg"><path d="M11.5938 2.53901H10.7476L10.7476 12.2698C10.7476 12.4461 10.7145 12.6113 10.6484 12.7656C10.5823 12.9198 10.492 13.0542 10.3774 13.1688C10.2628 13.2834 10.1284 13.3737 9.97416 13.4399C9.81991 13.506 9.65465 13.539 9.47837 13.539L2.70913 13.539C2.53285 13.539 2.36759 13.506 2.21334 13.4399C2.05909 13.3737 1.92468 13.2834 1.8101 13.1688C1.69551 13.0542 1.60517 12.9198 1.53906 12.7656C1.47296 12.6113 1.4399 12.4461 1.4399 12.2698L1.4399 2.53901H0.59375L0.59375 1.69286L3.97837 1.69286V0.846705C3.97837 0.727714 4.0004 0.617538 4.04447 0.516176C4.08854 0.414814 4.14804 0.326673 4.22296 0.251753C4.29788 0.176833 4.38822 0.115134 4.49399 0.0666566C4.59976 0.0181791 4.70994 -0.00385617 4.82452 0.000550881L7.36298 0.000550881C7.48197 0.000550881 7.59215 0.0225861 7.69351 0.0666566C7.79487 0.110727 7.88301 0.170222 7.95793 0.245142C8.03285 0.320062 8.09455 0.410407 8.14303 0.516176C8.19151 0.621945 8.21354 0.732121 8.20913 0.846705V1.69286L11.5938 1.69286V2.53901ZM4.82452 1.69286L7.36298 1.69286V0.846705L4.82452 0.846705V1.69286ZM9.90144 2.53901L2.28606 2.53901L2.28606 12.2698C2.28606 12.3844 2.32792 12.4835 2.41166 12.5673C2.49539 12.651 2.59455 12.6929 2.70913 12.6929L9.47837 12.6929C9.59295 12.6929 9.69211 12.651 9.77584 12.5673C9.85958 12.4835 9.90144 12.3844 9.90144 12.2698L9.90144 2.53901ZM4.82452 11.0006H3.97837L3.97837 4.23132L4.82452 4.23132L4.82452 11.0006ZM6.51683 11.0006H5.67067L5.67067 4.23132H6.51683L6.51683 11.0006ZM8.20913 11.0006L7.36298 11.0006L7.36298 4.23132H8.20913L8.20913 11.0006Z"></path></symbol><symbol id="check" width="14" height="10" viewBox="0 0 14 10" xmlns="http://www.w3.org/2000/svg"><path fill-rule="evenodd" clip-rule="evenodd" d="M5.22228 9.44464L0.777832 5.0002L2.02228 3.75575L5.22228 6.95575L11.9778 0.200195L13.2223 1.44464L5.22228 9.44464V9.44464Z"></path></symbol><symbol id="big-star" width="204" height="195" viewBox="0 0 204 195" xmlns="http://www.w3.org/2000/svg"><path d="M101.906 1.23669L125.566 74.0538C125.7 74.4658 126.084 74.7448 126.517 74.7448H203.082L141.14 119.748C140.789 120.003 140.642 120.454 140.776 120.866L164.436 193.683L102.494 148.68C102.144 148.425 101.669 148.425 101.318 148.68L39.3765 193.683L63.0362 120.866C63.1701 120.454 63.0234 120.003 62.673 119.748L0.730988 74.7448H77.2955C77.7287 74.7448 78.1126 74.4659 78.2465 74.0538L101.906 1.23669Z"></path></symbol><symbol id="comment" width="17" height="16" viewBox="0 0 17 16" xmlns="http://www.w3.org/2000/svg"><g clip-path="url(#clip0)"><g clip-path="url(#clip1)"><path d="M0.09375 1H16.0938V12H5.80469L2.09375 15.7109V12H0.09375V1ZM15.0938 11V2H1.09375V11H3.09375V13.2891L5.38281 11H15.0938Z"></path></g></g><defs><clipPath><rect width="16" height="16" transform="translate(0.09375)"></rect></clipPath><clipPath><rect width="16" height="16" transform="translate(0.09375)"></rect></clipPath></defs></symbol><symbol id="comparison" width="17" height="10" viewBox="0 0 17 10" xmlns="http://www.w3.org/2000/svg"><rect x="9.09375" width="7" height="1.5" rx="0.75"></rect><rect x="9.09375" y="4" width="7" height="1.5" rx="0.75"></rect><rect x="9.09375" y="8.02832" width="7" height="1.5" rx="0.75"></rect><path fill-rule="evenodd" clip-rule="evenodd" d="M2.34375 6.75C2.34375 7.16421 2.67954 7.5 3.09375 7.5C3.50796 7.5 3.84375 7.16421 3.84375 6.75V5.25H5.34375C5.75796 5.25 6.09375 4.91421 6.09375 4.5C6.09375 4.08579 5.75796 3.75 5.34375 3.75H3.84375L3.84375 2.25C3.84375 1.83579 3.50796 1.5 3.09375 1.5C2.67954 1.5 2.34375 1.83579 2.34375 2.25L2.34375 3.75L0.84375 3.75C0.429536 3.75 0.09375 4.08579 0.09375 4.5C0.09375 4.91421 0.429536 5.25 0.84375 5.25H2.34375V6.75Z"></path></symbol><symbol id="close" width="16" height="16" viewBox="0 0 16 16" xmlns="http://www.w3.org/2000/svg"><rect x="3.46436" y="2.0498" width="14.9984" height="1.99979" rx="0.999893" transform="rotate(45 3.46436 2.0498)"></rect><rect width="14.9984" height="1.99979" rx="0.999893" transform="matrix(0.707182 -0.707031 0.707182 0.707031 2.05029 12.5327)"></rect></symbol><symbol id="download" width="11" height="14" viewBox="0 0 11 14" xmlns="http://www.w3.org/2000/svg"><rect x="4.01953" y="9.90997" width="9.90993" height="1.9973" rx="0.998652" transform="rotate(-90 4.01953 9.90997)"></rect><rect width="6.96381" height="2.18327" rx="1" transform="matrix(0.709823 -0.70438 0.709823 0.70438 3.52002 9.41437)"></rect><rect width="6.96381" height="2.18327" rx="1" transform="matrix(-0.709823 -0.70438 0.709823 -0.70438 5.01807 11.0001)"></rect><rect x="0.0751953" y="12.0001" width="9.9379" height="2" rx="1"></rect></symbol><symbol id="light" width="15" height="15" viewBox="0 0 15 15" xmlns="http://www.w3.org/2000/svg"><path d="M7.5 4C7.98438 4 8.4375 4.09115 8.85938 4.27344C9.28125 4.45573 9.65365 4.70573 9.97656 5.02344C10.2995 5.34115 10.5495 5.71094 10.7266 6.13281C10.9036 6.55469 10.9948 7.01042 11 7.5C11 7.98438 10.9089 8.4375 10.7266 8.85938C10.5443 9.28125 10.2943 9.65365 9.97656 9.97656C9.65885 10.2995 9.28906 10.5495 8.86719 10.7266C8.44531 10.9036 7.98958 10.9948 7.5 11C7.01562 11 6.5625 10.9089 6.14062 10.7266C5.71875 10.5443 5.34635 10.2943 5.02344 9.97656C4.70052 9.65885 4.45052 9.28906 4.27344 8.86719C4.09635 8.44531 4.00521 7.98958 4 7.5C4 7.01562 4.09115 6.5625 4.27344 6.14062C4.45573 5.71875 4.70573 5.34635 5.02344 5.02344C5.34115 4.70052 5.71094 4.45052 6.13281 4.27344C6.55469 4.09635 7.01042 4.00521 7.5 4ZM7.5 10C7.84375 10 8.16667 9.9349 8.46875 9.80469C8.77083 9.67448 9.03385 9.4974 9.25781 9.27344C9.48177 9.04948 9.66146 8.78385 9.79688 8.47656C9.93229 8.16927 10 7.84375 10 7.5C10 7.15625 9.9349 6.83333 9.80469 6.53125C9.67448 6.22917 9.49479 5.96615 9.26562 5.74219C9.03646 5.51823 8.77083 5.33854 8.46875 5.20312C8.16667 5.06771 7.84375 5 7.5 5C7.15625 5 6.83333 5.0651 6.53125 5.19531C6.22917 5.32552 5.96354 5.50521 5.73438 5.73438C5.50521 5.96354 5.32552 6.22917 5.19531 6.53125C5.0651 6.83333 5 7.15625 5 7.5C5 7.84375 5.0651 8.16667 5.19531 8.46875C5.32552 8.77083 5.5026 9.03646 5.72656 9.26562C5.95052 9.49479 6.21615 9.67448 6.52344 9.80469C6.83073 9.9349 7.15625 10 7.5 10ZM8 3H7V0H8V3ZM7 12H8V15H7V12ZM15 7V8H12V7H15ZM3 8H0V7H3V8ZM3.96094 4.67188L1.84375 2.54688L2.54688 1.84375L4.67188 3.96094L3.96094 4.67188ZM11.0391 10.3281L13.1562 12.4531L12.4531 13.1562L10.3281 11.0391L11.0391 10.3281ZM11.0391 4.67188L10.3281 3.96094L12.4531 1.84375L13.1562 2.54688L11.0391 4.67188ZM3.96094 10.3281L4.67188 11.0391L2.54688 13.1562L1.84375 12.4531L3.96094 10.3281Z"></path></symbol><symbol id="copy-link" width="17" height="10" viewBox="0 0 17 10" xmlns="http://www.w3.org/2000/svg"><path d="M12.0938 3V4C12.4896 4 12.8672 4.04427 13.2266 4.13281C13.5859 4.22135 13.9062 4.36719 14.1875 4.57031C14.4688 4.77344 14.6875 5.03125 14.8438 5.34375C15 5.65625 15.0833 6.04167 15.0938 6.5C15.0938 6.84375 15.0286 7.16667 14.8984 7.46875C14.7682 7.77083 14.5885 8.03385 14.3594 8.25781C14.1302 8.48177 13.8646 8.66146 13.5625 8.79688C13.2604 8.93229 12.9375 9 12.5937 9H8.59375C8.25 9 7.92708 8.9349 7.625 8.80469C7.32292 8.67448 7.0599 8.49479 6.83594 8.26562C6.61198 8.03646 6.43229 7.77083 6.29687 7.46875C6.16146 7.16667 6.09375 6.84375 6.09375 6.5C6.09375 6.04688 6.17448 5.66406 6.33594 5.35156C6.4974 5.03906 6.71875 4.78125 7 4.57813C7.28125 4.375 7.59896 4.22917 7.95312 4.14063C8.30729 4.05208 8.6875 4.00521 9.09375 4V3H8.59375C8.10938 3 7.65625 3.09115 7.23438 3.27344C6.8125 3.45573 6.44271 3.70573 6.125 4.02344C5.80729 4.34115 5.55729 4.71094 5.375 5.13281C5.19271 5.55469 5.09896 6.01042 5.09375 6.5C5.09375 6.98438 5.1849 7.4375 5.36719 7.85938C5.54948 8.28125 5.79948 8.65104 6.11719 8.96875C6.4349 9.28646 6.80469 9.53646 7.22656 9.71875C7.64844 9.90104 8.10417 9.99479 8.59375 10H12.5937C13.0781 10 13.5312 9.90885 13.9531 9.72656C14.375 9.54427 14.7448 9.29427 15.0625 8.97656C15.3802 8.65885 15.6302 8.28906 15.8125 7.86719C15.9948 7.44531 16.0885 6.98958 16.0938 6.5C16.0938 6.01563 16.0026 5.5625 15.8203 5.14063C15.638 4.71875 15.388 4.34896 15.0703 4.03125C14.7526 3.71354 14.3828 3.46354 13.9609 3.28125C13.5391 3.09896 13.0833 3.00521 12.5938 3H12.0938ZM7.09375 7V6C7.48958 6 7.86719 5.95573 8.22656 5.86719C8.58594 5.77865 8.90625 5.63281 9.1875 5.42969C9.46875 5.22656 9.6875 4.96875 9.84375 4.65625C10 4.34375 10.0833 3.95833 10.0938 3.5C10.0938 3.15625 10.0286 2.83333 9.89844 2.53125C9.76823 2.22917 9.58854 1.96615 9.35938 1.74219C9.13021 1.51823 8.86458 1.33854 8.5625 1.20313C8.26042 1.06771 7.9375 1 7.59375 1L3.59375 1C3.25 1 2.92708 1.0651 2.625 1.19531C2.32292 1.32552 2.0599 1.50521 1.83594 1.73438C1.61198 1.96354 1.43229 2.22917 1.29687 2.53125C1.16146 2.83333 1.09375 3.15625 1.09375 3.5C1.09375 3.95312 1.17448 4.33594 1.33594 4.64844C1.4974 4.96094 1.71875 5.21875 2 5.42188C2.28125 5.625 2.59896 5.77083 2.95312 5.85938C3.30729 5.94792 3.6875 5.99479 4.09375 6V7L3.59375 7C3.10937 7 2.65625 6.90885 2.23437 6.72656C1.8125 6.54427 1.44271 6.29427 1.125 5.97656C0.807292 5.65885 0.557292 5.28906 0.375 4.86719C0.192708 4.44531 0.0989583 3.98958 0.09375 3.5C0.09375 3.01562 0.184896 2.5625 0.367187 2.14062C0.549479 1.71875 0.799479 1.34896 1.11719 1.03125C1.4349 0.713542 1.80469 0.463542 2.22656 0.28125C2.64844 0.0989583 3.10417 0.00520833 3.59375 0L7.59375 0C8.07812 0 8.53125 0.0911458 8.95312 0.273438C9.375 0.455729 9.74479 0.705729 10.0625 1.02344C10.3802 1.34115 10.6302 1.71094 10.8125 2.13281C10.9948 2.55469 11.0885 3.01042 11.0938 3.5C11.0938 3.98438 11.0026 4.4375 10.8203 4.85938C10.638 5.28125 10.388 5.65104 10.0703 5.96875C9.7526 6.28646 9.38281 6.53646 8.96094 6.71875C8.53906 6.90104 8.08333 6.99479 7.59375 7H7.09375Z"></path></symbol><symbol id="dark" width="12" height="13" viewBox="0 0 12 13" xmlns="http://www.w3.org/2000/svg"><path d="M0.807238 9.60537C1.3943 9.60537 1.96054 9.53042 2.50597 9.38054C3.05139 9.23065 3.55935 9.01414 4.02983 8.73102C4.50031 8.4479 4.93124 8.11481 5.32261 7.73177C5.71399 7.34872 6.04915 6.91779 6.32811 6.43898C6.60707 5.96018 6.82149 5.45014 6.97138 4.90888C7.12127 4.36762 7.1983 3.80137 7.20246 3.21015C7.20246 2.65639 7.13168 2.11305 6.99012 1.58012C6.84856 1.04718 6.64246 0.541309 6.37183 0.0625C6.90476 0.129117 7.4148 0.256105 7.90194 0.443465C8.38907 0.630825 8.84082 0.87023 9.25717 1.16168C9.67353 1.45313 10.0503 1.78829 10.3876 2.16718C10.7248 2.54606 11.0121 2.96033 11.2494 3.41C11.4868 3.85966 11.672 4.33639 11.8053 4.84018C11.9385 5.34397 12.003 5.8665 11.9989 6.40776C11.9989 6.99482 11.9239 7.56106 11.774 8.10649C11.6242 8.65191 11.4076 9.15987 11.1245 9.63035C10.8414 10.1008 10.5083 10.5318 10.1253 10.9231C9.74223 11.3145 9.3113 11.6497 8.83249 11.9286C8.35368 12.2076 7.84365 12.422 7.30238 12.5719C6.76112 12.7218 6.19488 12.7988 5.60365 12.803C5.02908 12.803 4.46908 12.728 3.92366 12.5781C3.37823 12.4283 2.86612 12.2138 2.38731 11.9349C1.9085 11.6559 1.46716 11.3145 1.0633 10.9106C0.659432 10.5068 0.318021 10.055 0.0390625 9.5554C0.168133 9.57206 0.295121 9.58455 0.420028 9.59288C0.544934 9.6012 0.674005 9.60537 0.807238 9.60537ZM5.60365 12.0036C6.11993 12.0036 6.6154 11.937 7.09004 11.8037C7.56469 11.6705 8.01019 11.4831 8.42654 11.2416C8.8429 11.0002 9.2197 10.7087 9.55695 10.3673C9.8942 10.0259 10.1856 9.64909 10.4313 9.23689C10.6769 8.8247 10.8664 8.3792 10.9996 7.90039C11.1329 7.42158 11.1995 6.92404 11.1995 6.40776C11.1995 5.84151 11.1162 5.29401 10.9497 4.76524C10.7831 4.23646 10.55 3.74516 10.2502 3.29134C9.95041 2.83751 9.58401 2.43364 9.151 2.07974C8.71799 1.72584 8.24127 1.44272 7.72082 1.23038C7.90818 1.87573 8.00186 2.53565 8.00186 3.21015C8.00186 3.81803 7.929 4.40509 7.78327 4.97133C7.63755 5.53757 7.42937 6.07467 7.15874 6.58263C6.88811 7.09058 6.56127 7.55898 6.17822 7.98783C5.79518 8.41667 5.36841 8.79556 4.89793 9.12448C4.42745 9.4534 3.9195 9.72195 3.37407 9.93013C2.82864 10.1383 2.25199 10.2799 1.64411 10.3548C2.17705 10.8877 2.78076 11.2958 3.45526 11.5789C4.12976 11.862 4.84589 12.0036 5.60365 12.0036Z"></path></symbol><symbol id="search" width="16" height="17" viewBox="0 0 16 17" xmlns="http://www.w3.org/2000/svg"><path fill-rule="evenodd" clip-rule="evenodd" d="M5.97343 12.1524C9.27247 12.1524 11.9469 9.47803 11.9469 6.179C11.9469 2.87996 9.27247 0.205566 5.97343 0.205566C2.6744 0.205566 0 2.87996 0 6.179C0 9.47803 2.6744 12.1524 5.97343 12.1524ZM5.97343 10.1613C8.17279 10.1613 9.95572 8.37836 9.95572 6.179C9.95572 3.97964 8.17279 2.19671 5.97343 2.19671C3.77408 2.19671 1.99114 3.97964 1.99114 6.179C1.99114 8.37836 3.77408 10.1613 5.97343 10.1613Z"></path><rect x="8.95996" y="10.5737" width="1.99114" height="7.96458" rx="0.995572" transform="rotate(-45 8.95996 10.5737)"></rect></symbol><symbol id="ipynb" width="15" height="15" viewBox="0 0 15 15" xmlns="http://www.w3.org/2000/svg"><rect x="12.292" y="14.3896" width="14" height="2" rx="1" transform="rotate(-90 12.292 14.3896)"></rect><rect x="0.291992" y="14.3896" width="14" height="2" rx="1" transform="rotate(-90 0.291992 14.3896)"></rect><rect x="0.291992" y="12.418" width="14" height="2" rx="1"></rect><rect x="0.291992" y="0.417969" width="14" height="2" rx="1"></rect><path d="M1.16797 9.50649C3.72663 11.0869 5.71463 9.63194 6.38879 8.70693L7.47057 5.03829C7.84684 4.00355 8.73109 2.76188 9.25788 6.07311C9.78467 9.38434 10.324 10.369 10.5278 10.4474C10.8257 10.8394 11.5249 11.3317 11.9388 10.1652" stroke-width="2"></path></symbol><symbol id="man" width="10" height="11" viewBox="0 0 10 11" xmlns="http://www.w3.org/2000/svg"><rect x="7" y="0.102539" width="4" height="4" rx="2" transform="rotate(90 7 0.102539)"></rect><path d="M0 9.38825C0 7.02132 1.91878 5.10254 4.28571 5.10254H5.71429C8.08122 5.10254 10 7.02132 10 9.38825V9.38825C10 9.78274 9.6802 10.1025 9.28571 10.1025H0.714286C0.319797 10.1025 0 9.78274 0 9.38825V9.38825Z"></path></symbol><symbol id="question" width="14" height="14" viewBox="0 0 14 14" xmlns="http://www.w3.org/2000/svg"><path d="M7 0.000770671C7.64428 0.000770671 8.26416 0.0837462 8.85963 0.249697C9.4551 0.415648 10.0115 0.649932 10.5289 0.952549C11.0463 1.25517 11.5197 1.62123 11.9492 2.05075C12.3788 2.48027 12.7424 2.95128 13.0401 3.46378C13.3379 3.97627 13.5746 4.53514 13.7503 5.14037C13.926 5.74561 14.009 6.36548 13.9992 7C13.9992 7.64428 13.9163 8.26416 13.7503 8.85963C13.5844 9.4551 13.3501 10.0115 13.0475 10.5289C12.7448 11.0463 12.3788 11.5197 11.9492 11.9492C11.5197 12.3788 11.0487 12.7424 10.5362 13.0401C10.0237 13.3379 9.46486 13.5746 8.85963 13.7503C8.25439 13.926 7.63452 14.009 7 13.9992C6.35572 13.9992 5.73584 13.9163 5.14037 13.7503C4.5449 13.5844 3.98848 13.3501 3.4711 13.0475C2.95372 12.7448 2.48027 12.3788 2.05075 11.9492C1.62123 11.5197 1.25761 11.0487 0.95987 10.5362C0.662134 10.0237 0.42541 9.46486 0.249697 8.85963C0.0739844 8.25439 -0.00899116 7.63452 0.000770671 7C0.000770671 6.35572 0.0837462 5.73584 0.249697 5.14037C0.415648 4.5449 0.649932 3.98848 0.952549 3.4711C1.25517 2.95372 1.62123 2.48027 2.05075 2.05075C2.48027 1.62123 2.95128 1.25761 3.46378 0.95987C3.97627 0.662134 4.53514 0.42541 5.14037 0.249697C5.74561 0.0739844 6.36548 -0.00899116 7 0.000770671ZM7 13.1207C7.56131 13.1207 8.10309 13.0475 8.62534 12.901C9.1476 12.7546 9.63569 12.5496 10.0896 12.286C10.5435 12.0225 10.956 11.7028 11.3269 11.3269C11.6979 10.9511 12.0151 10.5387 12.2787 10.0896C12.5423 9.64057 12.7497 9.15248 12.901 8.62534C13.0523 8.0982 13.1255 7.55642 13.1207 7C13.1207 6.43869 13.0475 5.89691 12.901 5.37466C12.7546 4.8524 12.5496 4.36431 12.286 3.91038C12.0225 3.45646 11.7028 3.04402 11.3269 2.67307C10.9511 2.30212 10.5387 1.98486 10.0896 1.72129C9.64057 1.45772 9.15248 1.25028 8.62534 1.09898C8.0982 0.947668 7.55642 0.874454 7 0.879335C6.43869 0.879335 5.89691 0.952549 5.37466 1.09898C4.8524 1.2454 4.36431 1.4504 3.91038 1.71397C3.45646 1.97754 3.04402 2.29724 2.67307 2.67307C2.30212 3.0489 1.98486 3.46134 1.72129 3.91038C1.45772 4.35943 1.25028 4.84752 1.09898 5.37466C0.947668 5.90179 0.874454 6.44358 0.879335 7C0.879335 7.56131 0.952549 8.10309 1.09898 8.62534C1.2454 9.1476 1.4504 9.63569 1.71397 10.0896C1.97754 10.5435 2.29724 10.956 2.67307 11.3269C3.0489 11.6979 3.46134 12.0151 3.91038 12.2787C4.35943 12.5423 4.84752 12.7497 5.37466 12.901C5.90179 13.0523 6.44358 13.1255 7 13.1207ZM6.53143 10.28H7.46857V11.2171H6.53143V10.28ZM7 3.25146C7.32214 3.25146 7.62476 3.31247 7.90785 3.43449C8.19094 3.55652 8.43743 3.72491 8.64731 3.93967C8.85719 4.15443 9.02558 4.40335 9.15248 4.68645C9.27939 4.96954 9.34284 5.27216 9.34284 5.5943C9.34284 5.88715 9.29647 6.14096 9.20373 6.35572C9.11099 6.57048 8.99629 6.76816 8.85963 6.94875C8.72296 7.12934 8.57165 7.28797 8.4057 7.42464C8.23975 7.56131 8.09088 7.70529 7.9591 7.8566C7.82731 8.00791 7.71017 8.16166 7.60767 8.31785C7.50517 8.47404 7.45881 8.65951 7.46857 8.87427V9.34284H6.53143V8.87427C6.53143 8.58142 6.5778 8.32761 6.67054 8.11285C6.76328 7.89809 6.87798 7.70041 7.01464 7.51982C7.15131 7.33922 7.30262 7.18059 7.46857 7.04393C7.63452 6.90726 7.78339 6.76328 7.91517 6.61197C8.04696 6.46066 8.1641 6.30691 8.2666 6.15072C8.3691 5.99453 8.41546 5.80906 8.4057 5.5943C8.4057 5.39906 8.3691 5.21603 8.29588 5.04519C8.22267 4.87436 8.12261 4.72549 7.99571 4.59859C7.8688 4.47169 7.71993 4.37163 7.5491 4.29841C7.37827 4.2252 7.19524 4.18859 7 4.18859C6.80476 4.18859 6.62173 4.2252 6.4509 4.29841C6.28007 4.37163 6.1312 4.47169 6.00429 4.59859C5.87739 4.72549 5.77733 4.87436 5.70412 5.04519C5.6309 5.21603 5.5943 5.39906 5.5943 5.5943H4.65716C4.65716 5.27216 4.71817 4.96954 4.8402 4.68645C4.96222 4.40335 5.12817 4.15687 5.33805 3.94699C5.54793 3.73711 5.79685 3.56872 6.08483 3.44181C6.3728 3.31491 6.67786 3.25146 7 3.25146Z"></path></symbol><symbol id="star" width="14" height="13" viewBox="0 0 14 13" xmlns="http://www.w3.org/2000/svg"><path d="M6.32135 0.463524C6.47102 0.00286841 7.12273 0.00286996 7.2724 0.463525L8.48073 4.18237C8.54767 4.38838 8.73965 4.52786 8.95626 4.52786H12.8665C13.3508 4.52786 13.5522 5.14767 13.1604 5.43237L9.99694 7.73075C9.82169 7.85807 9.74836 8.08375 9.8153 8.28976L11.0236 12.0086C11.1733 12.4693 10.6461 12.8523 10.2542 12.5676L7.09077 10.2693C6.91552 10.1419 6.67823 10.1419 6.50298 10.2693L3.33954 12.5676C2.94768 12.8523 2.42045 12.4693 2.57012 12.0086L3.77845 8.28976C3.84539 8.08375 3.77206 7.85807 3.59681 7.73075L0.43337 5.43237C0.0415136 5.14767 0.242903 4.52786 0.727265 4.52786H4.63749C4.8541 4.52786 5.04608 4.38838 5.11302 4.18237L6.32135 0.463524Z"></path></symbol><symbol id="table" width="13" height="12" viewBox="0 0 13 12" xmlns="http://www.w3.org/2000/svg"><path d="M12.0938 0V12H0.09375V0H12.0938ZM0.84375 3.75H3.84375V0.75H0.84375V3.75ZM0.84375 7.5H3.84375V4.5H0.84375V7.5ZM3.84375 8.25H0.84375V11.25H3.84375V8.25ZM11.3438 8.25H4.59375V11.25H11.3438V8.25ZM11.3438 4.5H4.59375V7.5H11.3438V4.5ZM11.3438 3.75V0.75H4.59375V3.75H11.3438Z"></path></symbol><symbol id="status-ok" width="16" height="16" viewBox="0 0 16 16" xmlns="http://www.w3.org/2000/svg"><g clip-path="url(#clip0)"><g clip-path="url(#clip1)"><path d="M11.7803 6.27984C12.0732 5.98695 12.0732 5.51207 11.7803 5.21918C11.4874 4.92629 11.0126 4.92629 10.7197 5.21918L6.75 9.18885L5.28033 7.71918C4.98744 7.42629 4.51256 7.42629 4.21967 7.71918C3.92678 8.01207 3.92678 8.48695 4.21967 8.77984L6.21967 10.7798C6.51256 11.0727 6.98744 11.0727 7.28033 10.7798L11.7803 6.27984Z"></path><path fill-rule="evenodd" clip-rule="evenodd" d="M0 7.99951C0 3.58123 3.58172 -0.000488281 8 -0.000488281C12.4183 -0.000488281 16 3.58123 16 7.99951C16 12.4178 12.4183 15.9995 8 15.9995C3.58172 15.9995 0 12.4178 0 7.99951ZM1.5 7.99951C1.5 4.40966 4.41015 1.49951 8 1.49951C11.5899 1.49951 14.5 4.40966 14.5 7.99951C14.5 11.5894 11.5899 14.4995 8 14.4995C4.41015 14.4995 1.5 11.5894 1.5 7.99951Z"></path></g></g><defs><clipPath><rect width="16" height="16" transform="translate(0 -0.000488281)"></rect></clipPath><clipPath><rect width="16" height="16" transform="translate(0 -0.000488281)"></rect></clipPath></defs></symbol><symbol id="remove-form-comparison" width="13" height="6" viewBox="0 0 13 6" xmlns="http://www.w3.org/2000/svg"><path fill-rule="evenodd" clip-rule="evenodd" d="M5 0V1H3H2H0V0H2H3H5ZM5 2.5V3.5H3H2H0V2.5H2H3H5ZM5 6V5H3H2H0V6H2H3H5ZM13 3.50001V2.50001H10.5H9.5H7V3.50001H9.5H10.5H13Z"></path></symbol><symbol id="logo" width="19" height="18" viewBox="0 0 19 18" xmlns="http://www.w3.org/2000/svg"><path d="M0.99707 9H4.59328V14.4H15.3819V3.6H0.99707V0.000229975H16.8152C17.1077 -0.00458693 17.3976 0.0663159 17.6655 0.208154C17.9198 0.338533 18.1512 0.526178 18.3472 0.761045C18.5381 0.990604 18.6933 1.25947 18.8057 1.55494C18.9204 1.85907 18.9792 2.18955 18.9781 2.52368V15.4717C18.9797 15.8167 18.9252 16.1587 18.8174 16.4783C18.7113 16.7754 18.5567 17.0437 18.3629 17.2674C18.1733 17.4962 17.9501 17.6805 17.7046 17.8109C17.4502 17.9387 17.177 18.003 16.9014 17.9999H0.99707V9Z"></path></symbol><symbol id="triangle" width="8" height="4" viewBox="0 0 8 4" xmlns="http://www.w3.org/2000/svg"><path d="M0.426782 0.42678L3.82326 3.82322C3.92089 3.92085 4.07918 3.92085 4.17681 3.82322L7.5732 0.42678C7.7307 0.26928 7.6192 0 7.3964 0H0.603562C0.380832 0 0.269292 0.26929 0.426782 0.42678Z"></path></symbol><symbol id="union" width="17" height="16" viewBox="0 0 17 16" xmlns="http://www.w3.org/2000/svg"><path d="M11.8741 6.28033C12.167 5.98744 12.167 5.51256 11.8741 5.21967C11.5812 4.92678 11.1063 4.92678 10.8134 5.21967L6.84375 9.18934L5.37408 7.71967C5.08119 7.42678 4.60631 7.42678 4.31342 7.71967C4.02053 8.01256 4.02053 8.48744 4.31342 8.78033L6.31342 10.7803C6.60631 11.0732 7.08119 11.0732 7.37408 10.7803L11.8741 6.28033Z"></path><path fill-rule="evenodd" clip-rule="evenodd" d="M0.09375 8C0.09375 3.58172 3.67547 0 8.09375 0C12.512 0 16.0938 3.58172 16.0938 8C16.0938 12.4183 12.512 16 8.09375 16C3.67547 16 0.09375 12.4183 0.09375 8ZM1.59375 8C1.59375 4.41015 4.5039 1.5 8.09375 1.5C11.6836 1.5 14.5938 4.41015 14.5938 8C14.5938 11.5899 11.6836 14.5 8.09375 14.5C4.5039 14.5 1.59375 11.5899 1.59375 8Z"></path></symbol></svg>