<?xml version="1.0" encoding="UTF-8" standalone="no"?><svg xmlns="http://www.w3.org/2000/svg" xmlns:xlink="http://www.w3.org/1999/xlink"><symbol id="arrow" width="11" height="10" viewBox="0 0 11 10" xmlns="http://www.w3.org/2000/svg"><rect x="1.08984" y="3.96912" width="9.90993" height="2.00978" rx="1"></rect><rect width="6.98576" height="2.19015" rx="1" transform="matrix(0.702166 0.712013 -0.702166 0.712013 1.58545 3.46661)"></rect><rect width="6.98576" height="2.19015" rx="1" transform="matrix(0.702166 -0.712013 0.702166 0.712013 0 4.974)"></rect></symbol><symbol id="active" width="16" height="16" viewBox="0 0 16 16" xmlns="http://www.w3.org/2000/svg"><path d="M11.7803 6.28033C12.0732 5.98744 12.0732 5.51256 11.7803 5.21967C11.4874 4.92678 11.0126 4.92678 10.7197 5.21967L6.75 9.18934L5.28033 7.71967C4.98744 7.42678 4.51256 7.42678 4.21967 7.71967C3.92678 8.01256 3.92678 8.48744 4.21967 8.78033L6.21967 10.7803C6.51256 11.0732 6.98744 11.0732 7.28033 10.7803L11.7803 6.28033Z"></path><path fill-rule="evenodd" clip-rule="evenodd" d="M0 8C0 3.58172 3.58172 0 8 0C12.4183 0 16 3.58172 16 8C16 12.4183 12.4183 16 8 16C3.58172 16 0 12.4183 0 8ZM1.5 8C1.5 4.41015 4.41015 1.5 8 1.5C11.5899 1.5 14.5 4.41015 14.5 8C14.5 11.5899 11.5899 14.5 8 14.5C4.41015 14.5 1.5 11.5899 1.5 8Z"></path></symbol><symbol id="man" width="10" height="11" viewBox="0 0 10 11" xmlns="http://www.w3.org/2000/svg"><rect x="7" y="0.102539" width="4" height="4" rx="2" transform="rotate(90 7 0.102539)"></rect><path d="M0 9.38825C0 7.02132 1.91878 5.10254 4.28571 5.10254H5.71429C8.08122 5.10254 10 7.02132 10 9.38825V9.38825C10 9.78274 9.6802 10.1025 9.28571 10.1025H0.714286C0.319797 10.1025 0 9.78274 0 9.38825V9.38825Z"></path></symbol><symbol id="search" width="16" height="17" viewBox="0 0 16 17" xmlns="http://www.w3.org/2000/svg"><path fill-rule="evenodd" clip-rule="evenodd" d="M5.97343 12.1524C9.27247 12.1524 11.9469 9.47803 11.9469 6.179C11.9469 2.87996 9.27247 0.205566 5.97343 0.205566C2.6744 0.205566 0 2.87996 0 6.179C0 9.47803 2.6744 12.1524 5.97343 12.1524ZM5.97343 10.1613C8.17279 10.1613 9.95572 8.37836 9.95572 6.179C9.95572 3.97964 8.17279 2.19671 5.97343 2.19671C3.77408 2.19671 1.99114 3.97964 1.99114 6.179C1.99114 8.37836 3.77408 10.1613 5.97343 10.1613Z"></path><rect x="8.95996" y="10.5737" width="1.99114" height="7.96458" rx="0.995572" transform="rotate(-45 8.95996 10.5737)"></rect></symbol><symbol id="logo" width="19" height="18" viewBox="0 0 19 18" xmlns="http://www.w3.org/2000/svg"><path d="M0.99707 9H4.59328V14.4H15.3819V3.6H0.99707V0.000229975H16.8152C17.1077 -0.00458693 17.3976 0.0663159 17.6655 0.208154C17.9198 0.338533 18.1512 0.526178 18.3472 0.761045C18.5381 0.990604 18.6933 1.25947 18.8057 1.55494C18.9204 1.85907 18.9792 2.18955 18.9781 2.52368V15.4717C18.9797 15.8167 18.9252 16.1587 18.8174 16.4783C18.7113 16.7754 18.5567 17.0437 18.3629 17.2674C18.1733 17.4962 17.9501 17.6805 17.7046 17.8109C17.4502 17.9387 17.177 18.003 16.9014 17.9999H0.99707V9Z"></path></symbol><symbol id="triangle" width="8" height="4" viewBox="0 0 8 4" xmlns="http://www.w3.org/2000/svg"><path d="M0.426782 0.42678L3.82326 3.82322C3.92089 3.92085 4.07918 3.92085 4.17681 3.82322L7.5732 0.42678C7.7307 0.26928 7.6192 0 7.3964 0H0.603562C0.380832 0 0.269292 0.26929 0.426782 0.42678Z"></path></symbol><symbol id="dark" width="16" height="16" viewBox="0 0 16 16" xmlns="http://www.w3.org/2000/svg"><path fill-rule="evenodd" clip-rule="evenodd" d="M10.7748 0.680603C7.7414 1.66372 5.54945 4.4977 5.54945 7.84045C5.54945 11.1832 7.7414 14.0172 10.7748 15.0003C10.0347 15.2402 9.24443 15.3699 8.42369 15.3699C4.23929 15.3699 0.847168 11.9988 0.847168 7.84045C0.847168 3.68207 4.23929 0.311035 8.42369 0.311035C9.24443 0.311035 10.0347 0.440723 10.7748 0.680603Z"></path></symbol></svg>