<svg width="14" height="13" viewBox="0 0 14 13" fill="none" xmlns="http://www.w3.org/2000/svg">
<path d="M6.61822 0.463035C6.7679 0.00238013 7.4196 0.00238168 7.56928 0.463037L8.77761 4.18188C8.84454 4.3879 9.03652 4.52738 9.25313 4.52738H13.1634C13.6477 4.52738 13.8491 5.14718 13.4573 5.43188L10.2938 7.73026C10.1186 7.85758 10.0452 8.08326 10.1122 8.28928L11.3205 12.0081C11.4702 12.4688 10.9429 12.8518 10.5511 12.5671L7.38764 10.2688C7.2124 10.1414 6.9751 10.1414 6.79986 10.2688L3.63642 12.5671C3.24456 12.8518 2.71732 12.4688 2.867 12.0081L4.07532 8.28928C4.14226 8.08326 4.06893 7.85758 3.89369 7.73026L0.730245 5.43188C0.338389 5.14718 0.539778 4.52738 1.02414 4.52738H4.93437C5.15098 4.52738 5.34296 4.3879 5.40989 4.18188L6.61822 0.463035Z" fill="#F1F3F4"/>
</svg>
