<svg width="10" height="16" viewBox="0 0 10 16" fill="none" xmlns="http://www.w3.org/2000/svg">
<path fill-rule="evenodd" clip-rule="evenodd" d="M5 0C2.23879 0 0 2.2384 0 4.99962C0 6.15488 0.391902 7.21863 1.05 8.06521V15V15.8124L1.7387 15.3815L5 13.3408L8.2613 15.3815L8.95 15.8124V15V8.06521C9.6081 7.21863 10 6.15488 10 4.99962C10 2.2384 7.76121 0 5 0ZM1.95 14.1876V8.96156C2.79409 9.61223 3.85188 9.99923 5 9.99923C6.14812 9.99923 7.20591 9.61223 8.05 8.96156V14.1876L5.2387 12.4285L5 12.2791L4.7613 12.4285L1.95 14.1876ZM5 1C2.79103 1 1 2.79072 1 4.99969C1 7.20866 2.79103 8.99939 5 8.99939C7.20897 8.99939 9 7.20866 9 4.99969C9 2.79072 7.20897 1 5 1ZM5.00012 2.62421C3.68855 2.62421 2.62512 3.68745 2.62512 4.99902C2.62512 6.3106 3.68855 7.37384 5.00012 7.37384C6.3117 7.37384 7.37512 6.3106 7.37512 4.99902C7.37512 3.68745 6.3117 2.62421 5.00012 2.62421Z" fill="#202124"/>
</svg>
