<svg width="17" height="10" viewBox="0 0 17 10" fill="none" xmlns="http://www.w3.org/2000/svg">
<rect x="9.09375" width="7" height="1.5" rx="0.75" fill="#DADCE0"/>
<rect x="9.09375" y="4" width="7" height="1.5" rx="0.75" fill="#DADCE0"/>
<rect x="9.09375" y="8.02832" width="7" height="1.5" rx="0.75" fill="#DADCE0"/>
<path fill-rule="evenodd" clip-rule="evenodd" d="M2.34375 6.75C2.34375 7.16421 2.67954 7.5 3.09375 7.5C3.50796 7.5 3.84375 7.16421 3.84375 6.75V5.25H5.34375C5.75796 5.25 6.09375 4.91421 6.09375 4.5C6.09375 4.08579 5.75796 3.75 5.34375 3.75H3.84375L3.84375 2.25C3.84375 1.83579 3.50796 1.5 3.09375 1.5C2.67954 1.5 2.34375 1.83579 2.34375 2.25L2.34375 3.75L0.84375 3.75C0.429536 3.75 0.09375 4.08579 0.09375 4.5C0.09375 4.91421 0.429536 5.25 0.84375 5.25H2.34375V6.75Z" fill="#DADCE0"/>
</svg>
