<svg width="17" height="10" viewBox="0 0 17 10" fill="none" xmlns="http://www.w3.org/2000/svg">
<path d="M12.0938 3V4C12.4896 4 12.8672 4.04427 13.2266 4.13281C13.5859 4.22135 13.9062 4.36719 14.1875 4.57031C14.4688 4.77344 14.6875 5.03125 14.8438 5.34375C15 5.65625 15.0833 6.04167 15.0938 6.5C15.0938 6.84375 15.0286 7.16667 14.8984 7.46875C14.7682 7.77083 14.5885 8.03385 14.3594 8.25781C14.1302 8.48177 13.8646 8.66146 13.5625 8.79688C13.2604 8.93229 12.9375 9 12.5937 9H8.59375C8.25 9 7.92708 8.9349 7.625 8.80469C7.32292 8.67448 7.0599 8.49479 6.83594 8.26562C6.61198 8.03646 6.43229 7.77083 6.29687 7.46875C6.16146 7.16667 6.09375 6.84375 6.09375 6.5C6.09375 6.04688 6.17448 5.66406 6.33594 5.35156C6.4974 5.03906 6.71875 4.78125 7 4.57813C7.28125 4.375 7.59896 4.22917 7.95312 4.14063C8.30729 4.05208 8.6875 4.00521 9.09375 4V3H8.59375C8.10938 3 7.65625 3.09115 7.23438 3.27344C6.8125 3.45573 6.44271 3.70573 6.125 4.02344C5.80729 4.34115 5.55729 4.71094 5.375 5.13281C5.19271 5.55469 5.09896 6.01042 5.09375 6.5C5.09375 6.98438 5.1849 7.4375 5.36719 7.85938C5.54948 8.28125 5.79948 8.65104 6.11719 8.96875C6.4349 9.28646 6.80469 9.53646 7.22656 9.71875C7.64844 9.90104 8.10417 9.99479 8.59375 10H12.5937C13.0781 10 13.5312 9.90885 13.9531 9.72656C14.375 9.54427 14.7448 9.29427 15.0625 8.97656C15.3802 8.65885 15.6302 8.28906 15.8125 7.86719C15.9948 7.44531 16.0885 6.98958 16.0938 6.5C16.0938 6.01563 16.0026 5.5625 15.8203 5.14063C15.638 4.71875 15.388 4.34896 15.0703 4.03125C14.7526 3.71354 14.3828 3.46354 13.9609 3.28125C13.5391 3.09896 13.0833 3.00521 12.5938 3H12.0938ZM7.09375 7V6C7.48958 6 7.86719 5.95573 8.22656 5.86719C8.58594 5.77865 8.90625 5.63281 9.1875 5.42969C9.46875 5.22656 9.6875 4.96875 9.84375 4.65625C10 4.34375 10.0833 3.95833 10.0938 3.5C10.0938 3.15625 10.0286 2.83333 9.89844 2.53125C9.76823 2.22917 9.58854 1.96615 9.35938 1.74219C9.13021 1.51823 8.86458 1.33854 8.5625 1.20313C8.26042 1.06771 7.9375 1 7.59375 1L3.59375 1C3.25 1 2.92708 1.0651 2.625 1.19531C2.32292 1.32552 2.0599 1.50521 1.83594 1.73438C1.61198 1.96354 1.43229 2.22917 1.29687 2.53125C1.16146 2.83333 1.09375 3.15625 1.09375 3.5C1.09375 3.95312 1.17448 4.33594 1.33594 4.64844C1.4974 4.96094 1.71875 5.21875 2 5.42188C2.28125 5.625 2.59896 5.77083 2.95312 5.85938C3.30729 5.94792 3.6875 5.99479 4.09375 6V7L3.59375 7C3.10937 7 2.65625 6.90885 2.23437 6.72656C1.8125 6.54427 1.44271 6.29427 1.125 5.97656C0.807292 5.65885 0.557292 5.28906 0.375 4.86719C0.192708 4.44531 0.0989583 3.98958 0.09375 3.5C0.09375 3.01562 0.184896 2.5625 0.367187 2.14062C0.549479 1.71875 0.799479 1.34896 1.11719 1.03125C1.4349 0.713542 1.80469 0.463542 2.22656 0.28125C2.64844 0.0989583 3.10417 0.00520833 3.59375 0L7.59375 0C8.07812 0 8.53125 0.0911458 8.95312 0.273438C9.375 0.455729 9.74479 0.705729 10.0625 1.02344C10.3802 1.34115 10.6302 1.71094 10.8125 2.13281C10.9948 2.55469 11.0885 3.01042 11.0938 3.5C11.0938 3.98438 11.0026 4.4375 10.8203 4.85938C10.638 5.28125 10.388 5.65104 10.0703 5.96875C9.7526 6.28646 9.38281 6.53646 8.96094 6.71875C8.53906 6.90104 8.08333 6.99479 7.59375 7H7.09375Z" fill="#F1F3F4"/>
</svg>
