<svg width="19" height="18" viewBox="0 0 19 18" fill="none" xmlns="http://www.w3.org/2000/svg">
<path d="M0.99707 9H4.59328V14.4H15.3819V3.6H0.99707V0.000229975H16.8152C17.1077 -0.00458693 17.3976 0.0663159 17.6655 0.208154C17.9198 0.338533 18.1512 0.526178 18.3472 0.761045C18.5381 0.990604 18.6933 1.25947 18.8057 1.55494C18.9204 1.85907 18.9792 2.18955 18.9781 2.52368V15.4717C18.9797 15.8167 18.9252 16.1587 18.8174 16.4783C18.7113 16.7754 18.5567 17.0437 18.3629 17.2674C18.1733 17.4962 17.9501 17.6805 17.7046 17.8109C17.4502 17.9387 17.177 18.003 16.9014 17.9999H0.99707V9Z" fill="#F2F2F2"/>
</svg>
