<svg width="14" height="14" viewBox="0 0 14 14" fill="none" xmlns="http://www.w3.org/2000/svg">
<path d="M7 0.000770671C7.64428 0.000770671 8.26416 0.0837462 8.85963 0.249697C9.4551 0.415648 10.0115 0.649932 10.5289 0.952549C11.0463 1.25517 11.5197 1.62123 11.9492 2.05075C12.3788 2.48027 12.7424 2.95128 13.0401 3.46378C13.3379 3.97627 13.5746 4.53514 13.7503 5.14037C13.926 5.74561 14.009 6.36548 13.9992 7C13.9992 7.64428 13.9163 8.26416 13.7503 8.85963C13.5844 9.4551 13.3501 10.0115 13.0475 10.5289C12.7448 11.0463 12.3788 11.5197 11.9492 11.9492C11.5197 12.3788 11.0487 12.7424 10.5362 13.0401C10.0237 13.3379 9.46486 13.5746 8.85963 13.7503C8.25439 13.926 7.63452 14.009 7 13.9992C6.35572 13.9992 5.73584 13.9163 5.14037 13.7503C4.5449 13.5844 3.98848 13.3501 3.4711 13.0475C2.95372 12.7448 2.48027 12.3788 2.05075 11.9492C1.62123 11.5197 1.25761 11.0487 0.95987 10.5362C0.662134 10.0237 0.42541 9.46486 0.249697 8.85963C0.0739844 8.25439 -0.00899116 7.63452 0.000770671 7C0.000770671 6.35572 0.0837462 5.73584 0.249697 5.14037C0.415648 4.5449 0.649932 3.98848 0.952549 3.4711C1.25517 2.95372 1.62123 2.48027 2.05075 2.05075C2.48027 1.62123 2.95128 1.25761 3.46378 0.95987C3.97627 0.662134 4.53514 0.42541 5.14037 0.249697C5.74561 0.0739844 6.36548 -0.00899116 7 0.000770671ZM7 13.1207C7.56131 13.1207 8.10309 13.0475 8.62534 12.901C9.1476 12.7546 9.63569 12.5496 10.0896 12.286C10.5435 12.0225 10.956 11.7028 11.3269 11.3269C11.6979 10.9511 12.0151 10.5387 12.2787 10.0896C12.5423 9.64057 12.7497 9.15248 12.901 8.62534C13.0523 8.0982 13.1255 7.55642 13.1207 7C13.1207 6.43869 13.0475 5.89691 12.901 5.37466C12.7546 4.8524 12.5496 4.36431 12.286 3.91038C12.0225 3.45646 11.7028 3.04402 11.3269 2.67307C10.9511 2.30212 10.5387 1.98486 10.0896 1.72129C9.64057 1.45772 9.15248 1.25028 8.62534 1.09898C8.0982 0.947668 7.55642 0.874454 7 0.879335C6.43869 0.879335 5.89691 0.952549 5.37466 1.09898C4.8524 1.2454 4.36431 1.4504 3.91038 1.71397C3.45646 1.97754 3.04402 2.29724 2.67307 2.67307C2.30212 3.0489 1.98486 3.46134 1.72129 3.91038C1.45772 4.35943 1.25028 4.84752 1.09898 5.37466C0.947668 5.90179 0.874454 6.44358 0.879335 7C0.879335 7.56131 0.952549 8.10309 1.09898 8.62534C1.2454 9.1476 1.4504 9.63569 1.71397 10.0896C1.97754 10.5435 2.29724 10.956 2.67307 11.3269C3.0489 11.6979 3.46134 12.0151 3.91038 12.2787C4.35943 12.5423 4.84752 12.7497 5.37466 12.901C5.90179 13.0523 6.44358 13.1255 7 13.1207ZM6.53143 10.28H7.46857V11.2171H6.53143V10.28ZM7 3.25146C7.32214 3.25146 7.62476 3.31247 7.90785 3.43449C8.19094 3.55652 8.43743 3.72491 8.64731 3.93967C8.85719 4.15443 9.02558 4.40335 9.15248 4.68645C9.27939 4.96954 9.34284 5.27216 9.34284 5.5943C9.34284 5.88715 9.29647 6.14096 9.20373 6.35572C9.11099 6.57048 8.99629 6.76816 8.85963 6.94875C8.72296 7.12934 8.57165 7.28797 8.4057 7.42464C8.23975 7.56131 8.09088 7.70529 7.9591 7.8566C7.82731 8.00791 7.71017 8.16166 7.60767 8.31785C7.50517 8.47404 7.45881 8.65951 7.46857 8.87427V9.34284H6.53143V8.87427C6.53143 8.58142 6.5778 8.32761 6.67054 8.11285C6.76328 7.89809 6.87798 7.70041 7.01464 7.51982C7.15131 7.33922 7.30262 7.18059 7.46857 7.04393C7.63452 6.90726 7.78339 6.76328 7.91517 6.61197C8.04696 6.46066 8.1641 6.30691 8.2666 6.15072C8.3691 5.99453 8.41546 5.80906 8.4057 5.5943C8.4057 5.39906 8.3691 5.21603 8.29588 5.04519C8.22267 4.87436 8.12261 4.72549 7.99571 4.59859C7.8688 4.47169 7.71993 4.37163 7.5491 4.29841C7.37827 4.2252 7.19524 4.18859 7 4.18859C6.80476 4.18859 6.62173 4.2252 6.4509 4.29841C6.28007 4.37163 6.1312 4.47169 6.00429 4.59859C5.87739 4.72549 5.77733 4.87436 5.70412 5.04519C5.6309 5.21603 5.5943 5.39906 5.5943 5.5943H4.65716C4.65716 5.27216 4.71817 4.96954 4.8402 4.68645C4.96222 4.40335 5.12817 4.15687 5.33805 3.94699C5.54793 3.73711 5.79685 3.56872 6.08483 3.44181C6.3728 3.31491 6.67786 3.25146 7 3.25146Z" fill="#F1F3F4"/>
</svg>
