<svg width="16" height="17" viewBox="0 0 16 17" fill="none" xmlns="http://www.w3.org/2000/svg">
<path fill-rule="evenodd" clip-rule="evenodd" d="M5.97343 12.1524C9.27247 12.1524 11.9469 9.47803 11.9469 6.179C11.9469 2.87996 9.27247 0.205566 5.97343 0.205566C2.6744 0.205566 0 2.87996 0 6.179C0 9.47803 2.6744 12.1524 5.97343 12.1524ZM5.97343 10.1613C8.17279 10.1613 9.95572 8.37836 9.95572 6.179C9.95572 3.97964 8.17279 2.19671 5.97343 2.19671C3.77408 2.19671 1.99114 3.97964 1.99114 6.179C1.99114 8.37836 3.77408 10.1613 5.97343 10.1613Z" fill="#A7A7A7"/>
<rect x="8.95996" y="10.5737" width="1.99114" height="7.96458" rx="0.995572" transform="rotate(-45 8.95996 10.5737)" fill="#A7A7A7"/>
</svg>
