<svg width="17" height="16" viewBox="0 0 17 16" fill="none" xmlns="http://www.w3.org/2000/svg">
<path d="M11.8741 6.28033C12.167 5.98744 12.167 5.51256 11.8741 5.21967C11.5812 4.92678 11.1063 4.92678 10.8134 5.21967L6.84375 9.18934L5.37408 7.71967C5.08119 7.42678 4.60631 7.42678 4.31342 7.71967C4.02053 8.01256 4.02053 8.48744 4.31342 8.78033L6.31342 10.7803C6.60631 11.0732 7.08119 11.0732 7.37408 10.7803L11.8741 6.28033Z" fill="#BDC1C6"/>
<path fill-rule="evenodd" clip-rule="evenodd" d="M0.09375 8C0.09375 3.58172 3.67547 0 8.09375 0C12.512 0 16.0938 3.58172 16.0938 8C16.0938 12.4183 12.512 16 8.09375 16C3.67547 16 0.09375 12.4183 0.09375 8ZM1.59375 8C1.59375 4.41015 4.5039 1.5 8.09375 1.5C11.6836 1.5 14.5938 4.41015 14.5938 8C14.5938 11.5899 11.6836 14.5 8.09375 14.5C4.5039 14.5 1.59375 11.5899 1.59375 8Z" fill="#BDC1C6"/>
</svg>
