<svg width="12" height="14" viewBox="0 0 12 14" fill="none" xmlns="http://www.w3.org/2000/svg">
<path d="M11.5938 2.53901H10.7476L10.7476 12.2698C10.7476 12.4461 10.7145 12.6113 10.6484 12.7656C10.5823 12.9198 10.492 13.0542 10.3774 13.1688C10.2628 13.2834 10.1284 13.3737 9.97416 13.4399C9.81991 13.506 9.65465 13.539 9.47837 13.539L2.70913 13.539C2.53285 13.539 2.36759 13.506 2.21334 13.4399C2.05909 13.3737 1.92468 13.2834 1.8101 13.1688C1.69551 13.0542 1.60517 12.9198 1.53906 12.7656C1.47296 12.6113 1.4399 12.4461 1.4399 12.2698L1.4399 2.53901H0.59375L0.59375 1.69286L3.97837 1.69286V0.846705C3.97837 0.727714 4.0004 0.617538 4.04447 0.516176C4.08854 0.414814 4.14804 0.326673 4.22296 0.251753C4.29788 0.176833 4.38822 0.115134 4.49399 0.0666566C4.59976 0.0181791 4.70994 -0.00385617 4.82452 0.000550881L7.36298 0.000550881C7.48197 0.000550881 7.59215 0.0225861 7.69351 0.0666566C7.79487 0.110727 7.88301 0.170222 7.95793 0.245142C8.03285 0.320062 8.09455 0.410407 8.14303 0.516176C8.19151 0.621945 8.21354 0.732121 8.20913 0.846705V1.69286L11.5938 1.69286V2.53901ZM4.82452 1.69286L7.36298 1.69286V0.846705L4.82452 0.846705V1.69286ZM9.90144 2.53901L2.28606 2.53901L2.28606 12.2698C2.28606 12.3844 2.32792 12.4835 2.41166 12.5673C2.49539 12.651 2.59455 12.6929 2.70913 12.6929L9.47837 12.6929C9.59295 12.6929 9.69211 12.651 9.77584 12.5673C9.85958 12.4835 9.90144 12.3844 9.90144 12.2698L9.90144 2.53901ZM4.82452 11.0006H3.97837L3.97837 4.23132L4.82452 4.23132L4.82452 11.0006ZM6.51683 11.0006H5.67067L5.67067 4.23132H6.51683L6.51683 11.0006ZM8.20913 11.0006L7.36298 11.0006L7.36298 4.23132H8.20913L8.20913 11.0006Z" fill="#F1F3F4"/>
</svg>
