<svg width="162" height="162" viewBox="0 0 162 162" fill="none" xmlns="http://www.w3.org/2000/svg">
<path d="M55.6875 0C50.5723 0 45.6416 0.65918 40.8955 1.97754C36.1494 3.2959 31.7197 5.16797 27.6064 7.59375C23.4932 10.0195 19.749 12.9199 16.374 16.2949C12.999 19.6699 10.0723 23.4404 7.59375 27.6064C5.11523 31.7725 3.24316 36.2021 1.97754 40.8955C0.711914 45.5889 0.0527344 50.5195 0 55.6875C0 60.8027 0.65918 65.7334 1.97754 70.4795C3.2959 75.2256 5.16797 79.6553 7.59375 83.7686C10.0195 87.8818 12.9199 91.626 16.2949 95.001C19.6699 98.376 23.4404 101.303 27.6064 103.781C31.7725 106.26 36.2021 108.132 40.8955 109.397C45.5889 110.663 50.5195 111.322 55.6875 111.375C62.2793 111.375 68.5811 110.268 74.5928 108.053C80.6045 105.838 86.168 102.647 91.2832 98.4814L153.378 160.497C154.38 161.499 155.566 162 156.938 162C158.309 162 159.495 161.499 160.497 160.497C161.499 159.495 162 158.309 162 156.938C162 155.566 161.499 154.38 160.497 153.378L98.4814 91.2832C102.647 86.2207 105.838 80.6836 108.053 74.6719C110.268 68.6602 111.375 62.332 111.375 55.6875C111.375 50.5723 110.716 45.6416 109.397 40.8955C108.079 36.1494 106.207 31.7197 103.781 27.6064C101.355 23.4932 98.4551 19.749 95.0801 16.374C91.7051 12.999 87.9346 10.0723 83.7686 7.59375C79.6025 5.11523 75.1729 3.24316 70.4795 1.97754C65.7861 0.711914 60.8555 0.0527344 55.6875 0ZM55.6875 101.25C49.4121 101.25 43.5059 100.063 37.9688 97.6904C32.4316 95.3174 27.6064 92.0479 23.4932 87.8818C19.3799 83.7158 16.1367 78.8906 13.7637 73.4062C11.3906 67.9219 10.1777 62.0156 10.125 55.6875C10.125 49.4121 11.3115 43.5059 13.6846 37.9688C16.0576 32.4316 19.3271 27.6064 23.4932 23.4932C27.6592 19.3799 32.4844 16.1367 37.9688 13.7637C43.4531 11.3906 49.3594 10.1777 55.6875 10.125C61.9629 10.125 67.8691 11.3115 73.4062 13.6846C78.9434 16.0576 83.7686 19.3271 87.8818 23.4932C91.9951 27.6592 95.2383 32.4844 97.6113 37.9688C99.9844 43.4531 101.197 49.3594 101.25 55.6875C101.25 61.9629 100.063 67.8691 97.6904 73.4062C95.3174 78.9434 92.0479 83.7686 87.8818 87.8818C83.7158 91.9951 78.8906 95.2383 73.4062 97.6113C67.9219 99.9844 62.0156 101.197 55.6875 101.25Z" fill="#3C4043"/>
</svg>
