<svg width="12" height="13" viewBox="0 0 12 13" fill="none" xmlns="http://www.w3.org/2000/svg">
<path d="M0.807238 9.60537C1.3943 9.60537 1.96054 9.53042 2.50597 9.38054C3.05139 9.23065 3.55935 9.01414 4.02983 8.73102C4.50031 8.4479 4.93124 8.11481 5.32261 7.73177C5.71399 7.34872 6.04915 6.91779 6.32811 6.43898C6.60707 5.96018 6.82149 5.45014 6.97138 4.90888C7.12127 4.36762 7.1983 3.80137 7.20246 3.21015C7.20246 2.65639 7.13168 2.11305 6.99012 1.58012C6.84856 1.04718 6.64246 0.541309 6.37183 0.0625C6.90476 0.129117 7.4148 0.256105 7.90194 0.443465C8.38907 0.630825 8.84082 0.87023 9.25717 1.16168C9.67353 1.45313 10.0503 1.78829 10.3876 2.16718C10.7248 2.54606 11.0121 2.96033 11.2494 3.41C11.4868 3.85966 11.672 4.33639 11.8053 4.84018C11.9385 5.34397 12.003 5.8665 11.9989 6.40776C11.9989 6.99482 11.9239 7.56106 11.774 8.10649C11.6242 8.65191 11.4076 9.15987 11.1245 9.63035C10.8414 10.1008 10.5083 10.5318 10.1253 10.9231C9.74223 11.3145 9.3113 11.6497 8.83249 11.9286C8.35368 12.2076 7.84365 12.422 7.30238 12.5719C6.76112 12.7218 6.19488 12.7988 5.60365 12.803C5.02908 12.803 4.46908 12.728 3.92366 12.5781C3.37823 12.4283 2.86612 12.2138 2.38731 11.9349C1.9085 11.6559 1.46716 11.3145 1.0633 10.9106C0.659432 10.5068 0.318021 10.055 0.0390625 9.5554C0.168133 9.57206 0.295121 9.58455 0.420028 9.59288C0.544934 9.6012 0.674005 9.60537 0.807238 9.60537ZM5.60365 12.0036C6.11993 12.0036 6.6154 11.937 7.09004 11.8037C7.56469 11.6705 8.01019 11.4831 8.42654 11.2416C8.8429 11.0002 9.2197 10.7087 9.55695 10.3673C9.8942 10.0259 10.1856 9.64909 10.4313 9.23689C10.6769 8.8247 10.8664 8.3792 10.9996 7.90039C11.1329 7.42158 11.1995 6.92404 11.1995 6.40776C11.1995 5.84151 11.1162 5.29401 10.9497 4.76524C10.7831 4.23646 10.55 3.74516 10.2502 3.29134C9.95041 2.83751 9.58401 2.43364 9.151 2.07974C8.71799 1.72584 8.24127 1.44272 7.72082 1.23038C7.90818 1.87573 8.00186 2.53565 8.00186 3.21015C8.00186 3.81803 7.929 4.40509 7.78327 4.97133C7.63755 5.53757 7.42937 6.07467 7.15874 6.58263C6.88811 7.09058 6.56127 7.55898 6.17822 7.98783C5.79518 8.41667 5.36841 8.79556 4.89793 9.12448C4.42745 9.4534 3.9195 9.72195 3.37407 9.93013C2.82864 10.1383 2.25199 10.2799 1.64411 10.3548C2.17705 10.8877 2.78076 11.2958 3.45526 11.5789C4.12976 11.862 4.84589 12.0036 5.60365 12.0036Z" fill="#56CCF2"/>
</svg>
