<svg width="15" height="15" viewBox="0 0 15 15" fill="none" xmlns="http://www.w3.org/2000/svg">
<path d="M7.5 4C7.98438 4 8.4375 4.09115 8.85938 4.27344C9.28125 4.45573 9.65365 4.70573 9.97656 5.02344C10.2995 5.34115 10.5495 5.71094 10.7266 6.13281C10.9036 6.55469 10.9948 7.01042 11 7.5C11 7.98438 10.9089 8.4375 10.7266 8.85938C10.5443 9.28125 10.2943 9.65365 9.97656 9.97656C9.65885 10.2995 9.28906 10.5495 8.86719 10.7266C8.44531 10.9036 7.98958 10.9948 7.5 11C7.01562 11 6.5625 10.9089 6.14062 10.7266C5.71875 10.5443 5.34635 10.2943 5.02344 9.97656C4.70052 9.65885 4.45052 9.28906 4.27344 8.86719C4.09635 8.44531 4.00521 7.98958 4 7.5C4 7.01562 4.09115 6.5625 4.27344 6.14062C4.45573 5.71875 4.70573 5.34635 5.02344 5.02344C5.34115 4.70052 5.71094 4.45052 6.13281 4.27344C6.55469 4.09635 7.01042 4.00521 7.5 4ZM7.5 10C7.84375 10 8.16667 9.9349 8.46875 9.80469C8.77083 9.67448 9.03385 9.4974 9.25781 9.27344C9.48177 9.04948 9.66146 8.78385 9.79688 8.47656C9.93229 8.16927 10 7.84375 10 7.5C10 7.15625 9.9349 6.83333 9.80469 6.53125C9.67448 6.22917 9.49479 5.96615 9.26562 5.74219C9.03646 5.51823 8.77083 5.33854 8.46875 5.20312C8.16667 5.06771 7.84375 5 7.5 5C7.15625 5 6.83333 5.0651 6.53125 5.19531C6.22917 5.32552 5.96354 5.50521 5.73438 5.73438C5.50521 5.96354 5.32552 6.22917 5.19531 6.53125C5.0651 6.83333 5 7.15625 5 7.5C5 7.84375 5.0651 8.16667 5.19531 8.46875C5.32552 8.77083 5.5026 9.03646 5.72656 9.26562C5.95052 9.49479 6.21615 9.67448 6.52344 9.80469C6.83073 9.9349 7.15625 10 7.5 10ZM8 3H7V0H8V3ZM7 12H8V15H7V12ZM15 7V8H12V7H15ZM3 8H0V7H3V8ZM3.96094 4.67188L1.84375 2.54688L2.54688 1.84375L4.67188 3.96094L3.96094 4.67188ZM11.0391 10.3281L13.1562 12.4531L12.4531 13.1562L10.3281 11.0391L11.0391 10.3281ZM11.0391 4.67188L10.3281 3.96094L12.4531 1.84375L13.1562 2.54688L11.0391 4.67188ZM3.96094 10.3281L4.67188 11.0391L2.54688 13.1562L1.84375 12.4531L3.96094 10.3281Z" fill="#9AA0A6"/>
</svg>
