<svg width="14" height="13" viewBox="0 0 14 13" fill="none" xmlns="http://www.w3.org/2000/svg">
<path d="M6.32135 0.463524C6.47102 0.00286841 7.12273 0.00286996 7.2724 0.463525L8.48073 4.18237C8.54767 4.38838 8.73965 4.52786 8.95626 4.52786H12.8665C13.3508 4.52786 13.5522 5.14767 13.1604 5.43237L9.99694 7.73075C9.82169 7.85807 9.74836 8.08375 9.8153 8.28976L11.0236 12.0086C11.1733 12.4693 10.6461 12.8523 10.2542 12.5676L7.09077 10.2693C6.91552 10.1419 6.67823 10.1419 6.50298 10.2693L3.33954 12.5676C2.94768 12.8523 2.42045 12.4693 2.57012 12.0086L3.77845 8.28976C3.84539 8.08375 3.77206 7.85807 3.59681 7.73075L0.43337 5.43237C0.0415136 5.14767 0.242903 4.52786 0.727265 4.52786H4.63749C4.8541 4.52786 5.04608 4.38838 5.11302 4.18237L6.32135 0.463524Z" fill="#F1F3F4"/>
</svg>
