<svg width="16" height="16" viewBox="0 0 16 16" fill="none" xmlns="http://www.w3.org/2000/svg">
<g clip-path="url(#clip0)">
<g clip-path="url(#clip1)">
<path d="M11.7803 6.27984C12.0732 5.98695 12.0732 5.51207 11.7803 5.21918C11.4874 4.92629 11.0126 4.92629 10.7197 5.21918L6.75 9.18885L5.28033 7.71918C4.98744 7.42629 4.51256 7.42629 4.21967 7.71918C3.92678 8.01207 3.92678 8.48695 4.21967 8.77984L6.21967 10.7798C6.51256 11.0727 6.98744 11.0727 7.28033 10.7798L11.7803 6.27984Z" fill="#4DAB61"/>
<path fill-rule="evenodd" clip-rule="evenodd" d="M0 7.99951C0 3.58123 3.58172 -0.000488281 8 -0.000488281C12.4183 -0.000488281 16 3.58123 16 7.99951C16 12.4178 12.4183 15.9995 8 15.9995C3.58172 15.9995 0 12.4178 0 7.99951ZM1.5 7.99951C1.5 4.40966 4.41015 1.49951 8 1.49951C11.5899 1.49951 14.5 4.40966 14.5 7.99951C14.5 11.5894 11.5899 14.4995 8 14.4995C4.41015 14.4995 1.5 11.5894 1.5 7.99951Z" fill="#4DAB61"/>
</g>
</g>
<defs>
<clipPath id="clip0">
<rect width="16" height="16" fill="white" transform="translate(0 -0.000488281)"/>
</clipPath>
<clipPath id="clip1">
<rect width="16" height="16" fill="white" transform="translate(0 -0.000488281)"/>
</clipPath>
</defs>
</svg>
